<svg t="1598509993266" class="icon" viewBox="0 0 1024 1024" version="1.1" xmlns="http://www.w3.org/2000/svg" p-id="10696" width="200" height="200"><path d="M174.69 906.16c-9.84 0-17.82-7.97-17.82-17.81v-17.81c0-9.84 7.98-17.82 17.82-17.82s17.82 7.98 17.82 17.82v17.81c0.01 9.84-7.98 17.81-17.82 17.81zM851.63 906.16c-9.84 0-17.8-7.97-17.8-17.81v-17.81c0-9.84 7.96-17.82 17.8-17.82s17.82 7.98 17.82 17.82v17.81c0.01 9.84-7.98 17.81-17.82 17.81z" fill="#434A54" p-id="10697"></path><path d="M139.07 799.27c-9.87 0-17.82-7.97-17.82-17.81V567.69c0-9.84 7.96-17.81 17.82-17.81 9.81 0 17.8 7.97 17.8 17.81v213.77c0 9.84-7.99 17.81-17.8 17.81zM887.28 799.27c-9.87 0-17.82-7.97-17.82-17.81V567.69c0-9.84 7.96-17.81 17.82-17.81 9.81 0 17.8 7.97 17.8 17.81v213.77c0 9.84-7.99 17.81-17.8 17.81z" fill="#965353" p-id="10698"></path><path d="M620.06 478.61c-6.32 0-11.85 3.29-15 8.22-20.9-4.95-57.44-8.22-99.03-8.22-64.93 0-117.56 7.98-117.56 17.82v71.25c0 9.84 52.63 17.81 117.56 17.81 41.6 0 78.13-3.28 99.03-8.21 3.16 4.93 8.69 8.21 15 8.21 9.81 0 17.8-7.97 17.8-17.81v-71.25c0-9.83-7.98-17.82-17.8-17.82z" fill="#434A54" p-id="10699"></path><path d="M210.31 692.39h231.6v71.27h-231.6z" fill="#A0D468" p-id="10700"></path><path d="M584.42 692.39h231.6v71.27h-231.6z" fill="#ED5564" p-id="10701"></path><path d="M584.42 621.13h231.6v71.25h-231.6z" fill="#FFCE54" p-id="10702"></path><path d="M513.18 799.27c-9.87 0-17.82-7.97-17.82-17.81V567.69c0-9.84 7.96-17.81 17.82-17.81 9.81 0 17.8 7.97 17.8 17.81v213.77c-0.01 9.84-7.99 17.81-17.8 17.81z" fill="#965353" p-id="10703"></path><path d="M887.28 763.65H139.07c-9.87 0-17.82 7.97-17.82 17.81v89.08c0 9.84 7.96 17.81 17.82 17.81h748.21c9.81 0 17.8-7.97 17.8-17.81v-89.08c0-9.83-7.99-17.81-17.8-17.81zM922.9 585.5H103.43c-9.84 0-17.8-7.97-17.8-17.81s7.96-17.81 17.8-17.81H922.9c9.84 0 17.82 7.97 17.82 17.81s-7.98 17.81-17.82 17.81z" fill="#A85D5D" p-id="10704"></path><path d="M210.31 140.14h605.7v356.29h-605.7z" fill="#5D9CEC" p-id="10705"></path><path d="M816.01 514.25h-605.7c-9.84 0-17.8-7.97-17.8-17.81v-356.3c0-9.84 7.96-17.81 17.8-17.81h605.7c9.84 0 17.82 7.97 17.82 17.81v356.29c0.01 9.84-7.98 17.82-17.82 17.82z m-587.87-35.64h570.05V157.95H228.14v320.66z" fill="#656D78" p-id="10706"></path><path d="M510.93 478.61H408.51l106.88-321.87h102.43z" fill="#FFFFFF" opacity=".1" p-id="10707"></path></svg>