<svg t="1598509978407" class="icon" viewBox="0 0 1024 1024" version="1.1" xmlns="http://www.w3.org/2000/svg" p-id="10557" width="200" height="200"><path d="M669.6 495.55c-9.7 0-17.56-7.84-17.56-17.54v-69.16c0-9.7 7.86-17.56 17.56-17.56s17.56 7.86 17.56 17.56v69.16c-0.01 9.7-7.87 17.54-17.56 17.54z" fill="#CCD1D9" p-id="10558"></path><path d="M492.72 417.18h35.13v517.39h-35.13z" fill="#DA4453" p-id="10559"></path><path d="M546.68 513.12h-70.25c-9.7 0-17.56-7.87-17.56-17.57s7.86-17.54 17.56-17.54h70.25c9.7 0 17.56 7.85 17.56 17.54-0.01 9.7-7.86 17.57-17.56 17.57z" fill="#ED5564" p-id="10560"></path><path d="M648.13 91.67H374.97C371.89 199.63 265.7 440.93 265.7 440.93c54.64 0 136.54-26.87 136.54-26.87s65.3 21.79 109.31 26.12c44.01-4.34 109.31-26.12 109.31-26.12s81.9 26.87 136.54 26.87c0 0-106.18-241.3-109.27-349.26z" fill="#F6BB42" p-id="10561"></path><path d="M402.27 414.15c0.17-0.06 0.27-0.09 0.27-0.09s65.29 21.79 109.3 26.12c42.41-4.17 104.53-24.54 109.04-26.03l-0.01-0.09C561.31 284.49 560.8 91.67 560.8 91.67h-98.5s-0.52 192.82-60.07 322.39l0.04 0.09z" fill="#FFCE54" p-id="10562"></path><path d="M634.47 934.57H388.63c-9.7 0-17.57-7.87-17.57-17.57s7.87-17.54 17.57-17.54h245.84c9.7 0 17.57 7.85 17.57 17.54 0 9.7-7.87 17.57-17.57 17.57z" fill="#434A54" p-id="10563"></path></svg>