<svg t="1598509937238" class="icon" viewBox="0 0 1024 1024" version="1.1" xmlns="http://www.w3.org/2000/svg" p-id="1073" width="200" height="200"><path d="M45.6 873.6a464 121.6 0 1 0 928 0 464 121.6 0 1 0-928 0Z" fill="#DAE9FF" p-id="1074"></path><path d="M781.6 856.8h-544c-52.8 0-96-43.2-96-96V216c0-52.8 43.2-96 96-96h544c52.8 0 96 43.2 96 96v544.8c0 52.8-43.2 96-96 96z" fill="#1D85DB" p-id="1075"></path><path d="M781.6 828.8h-544c-52.8 0-96-43.2-96-96V200c0-52.8 43.2-96 96-96h544c52.8 0 96 43.2 96 96v532.8c0 52.8-43.2 96-96 96z" fill="#459DF5" p-id="1076"></path><path d="M343.2 720V633.6c0-16.8-13.6-30.4-30.4-30.4h-31.2c-16.8 0-30.4 13.6-30.4 30.4V720c0 16.8 13.6 30.4 30.4 30.4h31.2c16.8 0 30.4-13.6 30.4-30.4z" fill="#BDE7FF" p-id="1077"></path><path d="M332 716.8V631.2c0-16.8-13.6-30.4-30.4-30.4h-31.2c-16.8 0-30.4 13.6-30.4 30.4v84.8c0 16.8 13.6 30.4 30.4 30.4h31.2c16.8 0 30.4-12.8 30.4-29.6z" fill="#FFFFFF" p-id="1078"></path><path d="M560.8 720V569.6c0-16.8-13.6-30.4-30.4-30.4h-31.2c-16.8 0-30.4 13.6-30.4 30.4V720c0 16.8 13.6 30.4 30.4 30.4h31.2c16.8 0 30.4-13.6 30.4-30.4z" fill="#BDE7FF" p-id="1079"></path><path d="M549.6 715.2V566.4c0-16.8-13.6-30.4-30.4-30.4H488c-16.8 0-30.4 13.6-30.4 30.4v148.8c0 16.8 13.6 30.4 30.4 30.4h32c16.8-0.8 29.6-13.6 29.6-30.4z" fill="#FFFFFF" p-id="1080"></path><path d="M778.4 720V508c0-16.8-13.6-30.4-30.4-30.4h-31.2c-16.8 0-30.4 13.6-30.4 30.4V720c0 16.8 13.6 30.4 30.4 30.4h31.2c16.8 0 30.4-13.6 30.4-30.4z" fill="#BDE7FF" p-id="1081"></path><path d="M768 713.6V503.2c0-16.8-13.6-30.4-30.4-30.4h-31.2c-16.8 0-30.4 13.6-30.4 30.4v210.4c0 16.8 13.6 30.4 30.4 30.4h31.2c16.8-0.8 30.4-13.6 30.4-30.4z" fill="#FFFFFF" p-id="1082"></path><path d="M435.2 350.4L254.4 448.8c-6.4 3.2-13.6 1.6-17.6-4.8L224 424c-4-6.4-2.4-15.2 4.8-19.2l181.6-98.4c6.4-3.2 13.6-1.6 17.6 4.8l12.8 20c4 7.2 1.6 16-5.6 19.2zM743.2 311.2L534.4 424c-6.4 3.2-13.6 1.6-17.6-4.8L504 400c-4-6.4-2.4-15.2 4.8-19.2l208.8-112.8c6.4-3.2 13.6-1.6 17.6 4.8l12.8 20c4.8 5.6 2.4 14.4-4.8 18.4z" fill="#BDE7FF" p-id="1083"></path><path d="M519.2 425.6l-132.8-68.8c-7.2-4-9.6-12.8-4.8-19.2l12.8-20c4-5.6 11.2-8 17.6-4.8l132.8 68.8c7.2 4 9.6 12.8 4.8 19.2l-12.8 20c-3.2 6.4-11.2 8-17.6 4.8zM731.2 292.8l66.4-60.8c5.6 0.8 10.4 6.4 9.6 12l-18.4 122.4" fill="#BDE7FF" p-id="1084"></path><path d="M677.6 204.8l114.4 16c5.6 0.8 8.8 5.6 8 10.4l-16 114.4M428 341.6L245.6 439.2c-5.6 3.2-13.6 0.8-17.6-4.8l-12.8-20c-4-6.4-2.4-15.2 4.8-19.2l181.6-96.8c6.4-3.2 14.4-1.6 17.6 4.8l12.8 20c4.8 5.6 3.2 14.4-4 18.4z" fill="#FFFFFF" p-id="1085"></path><path d="M519.2 408.8l-129.6-66.4c-7.2-4-9.6-12.8-5.6-19.2l12.8-20c4-5.6 11.2-8 17.6-4.8L544 364.8c7.2 4 9.6 12.8 5.6 19.2l-12.8 20c-4 5.6-12 8-17.6 4.8z" fill="#FFFFFF" p-id="1086"></path><path d="M744 296.8L534.4 408c-6.4 3.2-14.4 1.6-18.4-4L503.2 384c-4-6.4-2.4-15.2 4.8-19.2l209.6-112c6.4-3.2 14.4-1.6 18.4 4l12.8 20c4 7.2 2.4 16-4.8 20z" fill="#FFFFFF" p-id="1087"></path></svg>